<svg width="34" height="22" viewBox="0 0 34 22" fill="none" xmlns="http://www.w3.org/2000/svg">
<path d="M6.49111 9C6.37111 9 6.31111 8.956 6.31111 8.868C6.31111 8.796 6.36311 8.748 6.46711 8.724L6.74311 8.676C7.01511 8.628 7.15111 8.472 7.15111 8.208V1.152C7.15111 0.984 7.12311 0.872 7.06711 0.816C7.01911 0.76 6.91111 0.716 6.74311 0.684L6.46711 0.636C6.36311 0.612 6.31111 0.563999 6.31111 0.491999C6.31111 0.404 6.37111 0.36 6.49111 0.36H8.91511C9.53911 0.36 10.0791 0.544 10.5351 0.912C10.9911 1.272 11.3431 1.78 11.5911 2.436C11.8391 3.092 11.9631 3.852 11.9631 4.716C11.9631 5.588 11.8311 6.344 11.5671 6.984C11.3111 7.624 10.9471 8.12 10.4751 8.472C10.0031 8.824 9.44311 9 8.79511 9H6.49111ZM8.84311 8.688C9.55511 8.688 10.0951 8.348 10.4631 7.668C10.8391 6.988 11.0271 6.004 11.0271 4.716C11.0271 3.436 10.8471 2.444 10.4871 1.74C10.1351 1.028 9.61111 0.672 8.91511 0.672C8.30711 0.672 8.00311 0.964 8.00311 1.548V7.812C8.00311 8.132 8.06711 8.36 8.19511 8.496C8.33111 8.624 8.54711 8.688 8.84311 8.688ZM14.2944 3.648C14.6224 3.088 15.0184 2.808 15.4824 2.808C15.7464 2.808 15.9424 2.888 16.0704 3.048C16.1984 3.2 16.2624 3.372 16.2624 3.564C16.2624 3.716 16.2224 3.84 16.1424 3.936C16.0704 4.032 15.9544 4.08 15.7944 4.08C15.6664 4.08 15.5704 4.052 15.5064 3.996C15.4504 3.932 15.4024 3.86 15.3624 3.78C15.3304 3.7 15.2904 3.632 15.2424 3.576C15.1944 3.512 15.1144 3.48 15.0024 3.48C14.8584 3.48 14.7224 3.568 14.5944 3.744C14.4664 3.912 14.3584 4.14 14.2704 4.428C14.1904 4.716 14.1504 5.044 14.1504 5.412V8.196C14.1504 8.364 14.1744 8.484 14.2224 8.556C14.2784 8.628 14.3904 8.672 14.5584 8.688L14.8824 8.724C14.9704 8.74 15.0144 8.784 15.0144 8.856C15.0144 8.952 14.9544 9 14.8344 9H12.8064C12.6864 9 12.6264 8.956 12.6264 8.868C12.6264 8.796 12.6784 8.748 12.7824 8.724L12.9264 8.7C13.0944 8.668 13.2024 8.62 13.2504 8.556C13.3064 8.484 13.3344 8.364 13.3344 8.196V4.164C13.3344 4.02 13.3104 3.924 13.2624 3.876C13.2224 3.82 13.1464 3.784 13.0344 3.768L12.7824 3.732C12.6784 3.724 12.6264 3.68 12.6264 3.6C12.6264 3.536 12.6904 3.492 12.8184 3.468C13.0664 3.428 13.2544 3.364 13.3824 3.276C13.5184 3.188 13.6584 3.08 13.8024 2.952C13.8744 2.88 13.9344 2.844 13.9824 2.844C14.0544 2.844 14.0904 2.892 14.0904 2.988V3.636C14.0904 3.692 14.1144 3.728 14.1624 3.744C14.2104 3.752 14.2544 3.72 14.2944 3.648ZM18.5707 9.108C18.1867 9.108 17.8427 8.98 17.5387 8.724C17.2347 8.468 16.9907 8.108 16.8067 7.644C16.6307 7.172 16.5427 6.628 16.5427 6.012C16.5427 5.38 16.6347 4.824 16.8187 4.344C17.0027 3.864 17.2547 3.488 17.5747 3.216C17.8947 2.944 18.2507 2.808 18.6427 2.808C19.1147 2.808 19.4947 3.004 19.7827 3.396C20.0787 3.78 20.2267 4.408 20.2267 5.28C20.2267 5.544 20.1267 5.676 19.9267 5.676H17.6467C17.4867 5.676 17.4067 5.768 17.4067 5.952C17.4067 6.8 17.5307 7.436 17.7787 7.86C18.0267 8.284 18.3427 8.496 18.7267 8.496C19.0307 8.496 19.2787 8.388 19.4707 8.172C19.6627 7.956 19.8187 7.592 19.9387 7.08C19.9627 6.992 20.0147 6.948 20.0947 6.948C20.1907 6.948 20.2267 7.028 20.2027 7.188C20.0747 7.9 19.8707 8.4 19.5907 8.688C19.3107 8.968 18.9707 9.108 18.5707 9.108ZM17.6107 5.376H18.8227C19.2067 5.376 19.3987 5.176 19.3987 4.776C19.3987 4.256 19.3347 3.848 19.2067 3.552C19.0787 3.256 18.8867 3.108 18.6307 3.108C18.3187 3.108 18.0547 3.288 17.8387 3.648C17.6307 4.008 17.4947 4.52 17.4307 5.184C17.4147 5.312 17.4747 5.376 17.6107 5.376ZM21.9723 9.108C21.6363 9.108 21.3603 9.004 21.1443 8.796C20.9283 8.58 20.8203 8.296 20.8203 7.944C20.8203 7.6 20.9283 7.276 21.1443 6.972C21.3603 6.66 21.6563 6.38 22.0323 6.132C22.4083 5.884 22.8363 5.684 23.3163 5.532C23.4203 5.5 23.4723 5.432 23.4723 5.328V4.236C23.4723 3.852 23.4123 3.58 23.2923 3.42C23.1723 3.252 23.0083 3.168 22.8003 3.168C22.6003 3.168 22.4163 3.26 22.2483 3.444C22.0883 3.62 21.9723 3.92 21.9003 4.344C21.8603 4.6 21.7723 4.788 21.6363 4.908C21.5083 5.02 21.3763 5.076 21.2403 5.076C21.0163 5.076 20.9043 4.964 20.9043 4.74C20.9043 4.508 20.9683 4.28 21.0963 4.056C21.2323 3.824 21.4083 3.616 21.6243 3.432C21.8403 3.24 22.0763 3.088 22.3323 2.976C22.5883 2.864 22.8443 2.808 23.1003 2.808C23.8923 2.808 24.2883 3.268 24.2883 4.188V7.86C24.2883 8.196 24.3723 8.364 24.5403 8.364C24.6443 8.364 24.7403 8.296 24.8283 8.16C24.9163 8.016 24.9603 7.776 24.9603 7.44C24.9603 7.312 25.0123 7.248 25.1163 7.248C25.2123 7.248 25.2603 7.316 25.2603 7.452C25.2603 8.036 25.1563 8.46 24.9483 8.724C24.7483 8.98 24.5203 9.108 24.2643 9.108C24.0723 9.108 23.9203 9.032 23.8083 8.88C23.6963 8.72 23.6203 8.532 23.5803 8.316C23.5723 8.236 23.5363 8.196 23.4723 8.196C23.4163 8.188 23.3603 8.224 23.3043 8.304C23.1123 8.568 22.9163 8.768 22.7163 8.904C22.5163 9.04 22.2683 9.108 21.9723 9.108ZM22.2963 8.556C22.5043 8.556 22.6963 8.484 22.8723 8.34C23.0483 8.188 23.1923 7.988 23.3043 7.74C23.4163 7.492 23.4723 7.212 23.4723 6.9V6.024C23.4723 5.872 23.3883 5.828 23.2203 5.892C22.7323 6.068 22.3523 6.312 22.0803 6.624C21.8163 6.928 21.6843 7.296 21.6843 7.728C21.6843 8.28 21.8883 8.556 22.2963 8.556ZM25.6853 9C25.5653 9 25.5053 8.956 25.5053 8.868C25.5053 8.796 25.5573 8.748 25.6613 8.724L25.8053 8.7C25.9733 8.668 26.0813 8.62 26.1293 8.556C26.1853 8.484 26.2133 8.364 26.2133 8.196V4.164C26.2133 4.02 26.1893 3.924 26.1413 3.876C26.1013 3.82 26.0253 3.784 25.9133 3.768L25.6613 3.732C25.5573 3.724 25.5053 3.68 25.5053 3.6C25.5053 3.536 25.5693 3.492 25.6973 3.468C25.9453 3.428 26.1333 3.364 26.2613 3.276C26.3973 3.188 26.5373 3.08 26.6813 2.952C26.7533 2.88 26.8133 2.844 26.8613 2.844C26.9333 2.844 26.9693 2.892 26.9693 2.988V3.528C26.9693 3.584 26.9933 3.628 27.0413 3.66C27.0893 3.684 27.1413 3.668 27.1973 3.612C27.5253 3.3 27.8093 3.088 28.0493 2.976C28.2973 2.864 28.5453 2.808 28.7933 2.808C29.0253 2.808 29.2293 2.872 29.4053 3C29.5893 3.12 29.7253 3.304 29.8133 3.552C29.8373 3.616 29.8773 3.656 29.9333 3.672C29.9973 3.68 30.0573 3.656 30.1133 3.6C30.4413 3.296 30.7253 3.088 30.9653 2.976C31.2053 2.864 31.4493 2.808 31.6973 2.808C32.0333 2.808 32.3053 2.936 32.5133 3.192C32.7293 3.44 32.8373 3.808 32.8373 4.296V8.196C32.8373 8.364 32.8613 8.484 32.9093 8.556C32.9653 8.62 33.0773 8.664 33.2453 8.688L33.5093 8.724C33.5973 8.74 33.6413 8.788 33.6413 8.868C33.6413 8.956 33.5933 9 33.4973 9H31.4453C31.3333 9 31.2773 8.956 31.2773 8.868C31.2773 8.788 31.3213 8.74 31.4093 8.724L31.5773 8.7C31.7613 8.676 31.8813 8.628 31.9373 8.556C31.9933 8.484 32.0213 8.364 32.0213 8.196V4.428C32.0213 4.036 31.9493 3.76 31.8053 3.6C31.6693 3.44 31.4813 3.36 31.2413 3.36C31.0013 3.36 30.7813 3.436 30.5813 3.588C30.3893 3.732 30.2333 3.928 30.1133 4.176C29.9933 4.416 29.9333 4.684 29.9333 4.98V8.196C29.9333 8.364 29.9613 8.484 30.0173 8.556C30.0733 8.62 30.1893 8.664 30.3653 8.688L30.6293 8.724C30.7173 8.74 30.7613 8.788 30.7613 8.868C30.7613 8.956 30.7133 9 30.6173 9H28.5773C28.4653 9 28.4093 8.956 28.4093 8.868C28.4093 8.788 28.4533 8.74 28.5413 8.724L28.7093 8.7C28.8773 8.676 28.9853 8.628 29.0333 8.556C29.0893 8.484 29.1173 8.364 29.1173 8.196V4.428C29.1173 4.036 29.0453 3.76 28.9013 3.6C28.7653 3.44 28.5773 3.36 28.3373 3.36C28.0973 3.36 27.8773 3.436 27.6773 3.588C27.4853 3.732 27.3293 3.928 27.2093 4.176C27.0893 4.416 27.0293 4.684 27.0293 4.98V8.196C27.0293 8.364 27.0533 8.484 27.1013 8.556C27.1573 8.628 27.2693 8.672 27.4373 8.688L27.7613 8.724C27.8493 8.74 27.8933 8.784 27.8933 8.856C27.8933 8.952 27.8333 9 27.7133 9H25.6853Z" fill="url(#paint0_linear_763_256)"/>
<path d="M1.40366 21.3093C1.15566 21.3093 0.955657 21.2413 0.803657 21.1053C0.643657 20.9773 0.563657 20.8053 0.563657 20.5893C0.563657 20.4293 0.611657 20.2973 0.707657 20.1933C0.795657 20.0893 0.911657 20.0373 1.05566 20.0373C1.19166 20.0373 1.28766 20.0773 1.34366 20.1573C1.39966 20.2373 1.44366 20.3293 1.47566 20.4333C1.51566 20.5373 1.55966 20.6293 1.60766 20.7093C1.65566 20.7893 1.73166 20.8293 1.83566 20.8293C1.98766 20.8293 2.10366 20.7413 2.18366 20.5653C2.26366 20.3893 2.30366 20.1413 2.30366 19.8213V10.8813C2.30366 10.7133 2.27566 10.6013 2.21966 10.5453C2.17166 10.4893 2.06366 10.4453 1.89566 10.4133L1.61966 10.3653C1.51566 10.3413 1.46366 10.2933 1.46366 10.2213C1.46366 10.1333 1.52366 10.0893 1.64366 10.0893H3.81566C3.93566 10.0893 3.99566 10.1333 3.99566 10.2213C3.99566 10.2933 3.94366 10.3413 3.83966 10.3653L3.56366 10.4133C3.39566 10.4453 3.28366 10.4893 3.22766 10.5453C3.17966 10.6013 3.15566 10.7133 3.15566 10.8813V18.2013C3.15566 19.1613 2.99966 19.9173 2.68766 20.4693C2.37566 21.0293 1.94766 21.3093 1.40366 21.3093ZM6.42556 18.8373C6.01756 18.8373 5.64956 18.7013 5.32156 18.4293C5.00156 18.1493 4.74556 17.7693 4.55356 17.2893C4.36156 16.8093 4.26556 16.2733 4.26556 15.6813C4.26556 15.0893 4.36156 14.5573 4.55356 14.0853C4.74556 13.6133 5.00556 13.2373 5.33356 12.9573C5.66156 12.6773 6.02556 12.5373 6.42556 12.5373C6.83356 12.5373 7.19756 12.6773 7.51756 12.9573C7.84556 13.2373 8.10556 13.6133 8.29756 14.0853C8.48956 14.5573 8.58556 15.0893 8.58556 15.6813C8.58556 16.2733 8.48956 16.8093 8.29756 17.2893C8.11356 17.7693 7.85756 18.1493 7.52956 18.4293C7.20156 18.7013 6.83356 18.8373 6.42556 18.8373ZM6.42556 18.5373C7.25756 18.5373 7.67356 17.5853 7.67356 15.6813C7.67356 13.7853 7.25756 12.8373 6.42556 12.8373C5.59356 12.8373 5.17756 13.7853 5.17756 15.6813C5.17756 17.5853 5.59356 18.5373 6.42556 18.5373ZM10.94 18.8373C10.74 18.8373 10.548 18.7933 10.364 18.7053C10.18 18.6173 10.028 18.4773 9.908 18.2853C9.788 18.0933 9.728 17.8373 9.728 17.5173V13.3413C9.728 13.1973 9.704 13.0973 9.656 13.0413C9.616 12.9853 9.54 12.9533 9.428 12.9453L9.224 12.9213C9.088 12.9053 9.02 12.8533 9.02 12.7653C9.02 12.6613 9.096 12.6093 9.248 12.6093H10.364C10.484 12.6093 10.544 12.6693 10.544 12.7893V17.2653C10.544 17.6333 10.612 17.8973 10.748 18.0573C10.892 18.2093 11.088 18.2853 11.336 18.2853C11.584 18.2853 11.804 18.2173 11.996 18.0813C12.188 17.9373 12.34 17.7493 12.452 17.5173C12.572 17.2773 12.632 17.0173 12.632 16.7373V13.3413C12.632 13.1973 12.608 13.0973 12.56 13.0413C12.52 12.9853 12.444 12.9533 12.332 12.9453L12.128 12.9213C11.992 12.9053 11.924 12.8533 11.924 12.7653C11.924 12.6613 12 12.6093 12.152 12.6093H13.268C13.388 12.6093 13.448 12.6693 13.448 12.7893V17.4453C13.448 17.5893 13.468 17.6893 13.508 17.7453C13.556 17.7933 13.636 17.8253 13.748 17.8413L14 17.8773C14.104 17.8853 14.156 17.9253 14.156 17.9973C14.156 18.0693 14.092 18.1173 13.964 18.1413C13.716 18.1733 13.516 18.2373 13.364 18.3333C13.22 18.4293 13.092 18.5453 12.98 18.6813C12.908 18.7533 12.848 18.7893 12.8 18.7893C12.728 18.7893 12.692 18.7413 12.692 18.6453V18.0933C12.692 18.0293 12.668 17.9933 12.62 17.9853C12.58 17.9693 12.536 17.9853 12.488 18.0333C12.192 18.3293 11.928 18.5373 11.696 18.6573C11.472 18.7773 11.22 18.8373 10.94 18.8373ZM16.1852 13.3773C16.5132 12.8173 16.9092 12.5373 17.3732 12.5373C17.6372 12.5373 17.8332 12.6173 17.9612 12.7773C18.0892 12.9293 18.1532 13.1013 18.1532 13.2933C18.1532 13.4453 18.1132 13.5693 18.0332 13.6653C17.9612 13.7613 17.8452 13.8093 17.6852 13.8093C17.5572 13.8093 17.4612 13.7813 17.3972 13.7253C17.3412 13.6613 17.2932 13.5893 17.2532 13.5093C17.2212 13.4293 17.1812 13.3613 17.1332 13.3053C17.0852 13.2413 17.0052 13.2093 16.8932 13.2093C16.7492 13.2093 16.6132 13.2973 16.4852 13.4733C16.3572 13.6413 16.2492 13.8693 16.1612 14.1573C16.0812 14.4453 16.0412 14.7733 16.0412 15.1413V17.9253C16.0412 18.0933 16.0652 18.2133 16.1132 18.2853C16.1692 18.3573 16.2812 18.4013 16.4492 18.4173L16.7732 18.4533C16.8612 18.4693 16.9052 18.5133 16.9052 18.5853C16.9052 18.6813 16.8452 18.7293 16.7252 18.7293H14.6972C14.5772 18.7293 14.5172 18.6853 14.5172 18.5973C14.5172 18.5253 14.5692 18.4773 14.6732 18.4533L14.8172 18.4293C14.9852 18.3973 15.0932 18.3493 15.1412 18.2853C15.1972 18.2133 15.2252 18.0933 15.2252 17.9253V13.8933C15.2252 13.7493 15.2012 13.6533 15.1532 13.6053C15.1132 13.5493 15.0372 13.5133 14.9252 13.4973L14.6732 13.4613C14.5692 13.4533 14.5172 13.4093 14.5172 13.3293C14.5172 13.2653 14.5812 13.2213 14.7092 13.1973C14.9572 13.1573 15.1452 13.0933 15.2732 13.0053C15.4092 12.9173 15.5492 12.8093 15.6932 12.6813C15.7652 12.6093 15.8252 12.5733 15.8732 12.5733C15.9452 12.5733 15.9812 12.6213 15.9812 12.7173V13.3653C15.9812 13.4213 16.0052 13.4573 16.0532 13.4733C16.1012 13.4813 16.1452 13.4493 16.1852 13.3773ZM18.5175 18.7293C18.3975 18.7293 18.3375 18.6853 18.3375 18.5973C18.3375 18.5253 18.3895 18.4773 18.4935 18.4533L18.6375 18.4293C18.8055 18.3973 18.9135 18.3493 18.9615 18.2853C19.0175 18.2133 19.0455 18.0933 19.0455 17.9253V13.8933C19.0455 13.7493 19.0215 13.6533 18.9735 13.6053C18.9335 13.5493 18.8575 13.5133 18.7455 13.4973L18.4935 13.4613C18.3895 13.4533 18.3375 13.4093 18.3375 13.3293C18.3375 13.2653 18.4015 13.2213 18.5295 13.1973C18.7775 13.1573 18.9655 13.0933 19.0935 13.0053C19.2295 12.9173 19.3695 12.8093 19.5135 12.6813C19.5855 12.6093 19.6455 12.5733 19.6935 12.5733C19.7655 12.5733 19.8015 12.6213 19.8015 12.7173V13.2573C19.8015 13.3293 19.8255 13.3773 19.8735 13.4013C19.9295 13.4173 19.9895 13.3933 20.0535 13.3293C20.3735 13.0253 20.6535 12.8173 20.8935 12.7053C21.1415 12.5933 21.4015 12.5373 21.6735 12.5373C22.0335 12.5373 22.3215 12.6653 22.5375 12.9213C22.7535 13.1693 22.8615 13.5373 22.8615 14.0253V17.9253C22.8615 18.0933 22.8855 18.2133 22.9335 18.2853C22.9895 18.3493 23.1015 18.3933 23.2695 18.4173L23.5335 18.4533C23.6215 18.4693 23.6655 18.5173 23.6655 18.5973C23.6655 18.6853 23.6175 18.7293 23.5215 18.7293H21.5055C21.3935 18.7293 21.3375 18.6853 21.3375 18.5973C21.3375 18.5173 21.3815 18.4693 21.4695 18.4533L21.6375 18.4293C21.8055 18.4053 21.9135 18.3573 21.9615 18.2853C22.0175 18.2133 22.0455 18.0933 22.0455 17.9253V14.1573C22.0455 13.7653 21.9735 13.4893 21.8295 13.3293C21.6855 13.1693 21.4815 13.0893 21.2175 13.0893C20.9615 13.0893 20.7295 13.1653 20.5215 13.3173C20.3215 13.4613 20.1615 13.6573 20.0415 13.9053C19.9215 14.1453 19.8615 14.4133 19.8615 14.7093V17.9253C19.8615 18.0933 19.8855 18.2133 19.9335 18.2853C19.9895 18.3573 20.1015 18.4013 20.2695 18.4173L20.5935 18.4533C20.6815 18.4693 20.7255 18.5133 20.7255 18.5853C20.7255 18.6813 20.6655 18.7293 20.5455 18.7293H18.5175ZM26.0983 18.8373C25.7143 18.8373 25.3703 18.7093 25.0663 18.4533C24.7623 18.1973 24.5183 17.8373 24.3343 17.3733C24.1583 16.9013 24.0703 16.3573 24.0703 15.7413C24.0703 15.1093 24.1623 14.5533 24.3463 14.0733C24.5303 13.5933 24.7823 13.2173 25.1023 12.9453C25.4223 12.6733 25.7783 12.5373 26.1703 12.5373C26.6423 12.5373 27.0223 12.7333 27.3103 13.1253C27.6063 13.5093 27.7543 14.1373 27.7543 15.0093C27.7543 15.2733 27.6543 15.4053 27.4543 15.4053H25.1743C25.0143 15.4053 24.9343 15.4973 24.9343 15.6813C24.9343 16.5293 25.0583 17.1653 25.3063 17.5893C25.5543 18.0133 25.8703 18.2253 26.2543 18.2253C26.5583 18.2253 26.8063 18.1173 26.9983 17.9013C27.1903 17.6853 27.3463 17.3213 27.4663 16.8093C27.4903 16.7213 27.5423 16.6773 27.6223 16.6773C27.7183 16.6773 27.7543 16.7573 27.7303 16.9173C27.6023 17.6293 27.3983 18.1293 27.1183 18.4173C26.8383 18.6973 26.4983 18.8373 26.0983 18.8373ZM25.1383 15.1053H26.3503C26.7343 15.1053 26.9263 14.9053 26.9263 14.5053C26.9263 13.9853 26.8623 13.5773 26.7343 13.2813C26.6063 12.9853 26.4143 12.8373 26.1583 12.8373C25.8463 12.8373 25.5823 13.0173 25.3663 13.3773C25.1583 13.7373 25.0223 14.2493 24.9583 14.9133C24.9423 15.0413 25.0023 15.1053 25.1383 15.1053ZM29.0559 21.1893C28.8399 21.1893 28.6679 21.1133 28.5399 20.9613C28.4119 20.8173 28.3479 20.6493 28.3479 20.4573C28.3479 20.3053 28.3919 20.1773 28.4799 20.0733C28.5679 19.9693 28.6879 19.9173 28.8399 19.9173C28.9679 19.9173 29.0599 19.9453 29.1159 20.0013C29.1719 20.0573 29.2119 20.1213 29.2359 20.1933C29.2599 20.2653 29.2839 20.3293 29.3079 20.3853C29.3319 20.4413 29.3799 20.4693 29.4519 20.4693C29.5399 20.4693 29.6199 20.4053 29.6919 20.2773C29.7639 20.1573 29.8639 19.8973 29.9919 19.4973C30.0719 19.2573 30.1199 19.0493 30.1359 18.8733C30.1599 18.6973 30.1559 18.5093 30.1239 18.3093C30.0999 18.1093 30.0399 17.8653 29.9439 17.5773L28.6359 13.4133C28.5799 13.2213 28.5239 13.0973 28.4679 13.0413C28.4199 12.9853 28.3399 12.9453 28.2279 12.9213L28.0479 12.8853C27.9439 12.8613 27.8919 12.8093 27.8919 12.7293C27.8919 12.6493 27.9479 12.6093 28.0599 12.6093H30.0399C30.1519 12.6093 30.2079 12.6493 30.2079 12.7293C30.2079 12.8173 30.1559 12.8693 30.0519 12.8853L29.8599 12.9093C29.6679 12.9333 29.5439 12.9813 29.4879 13.0533C29.4399 13.1173 29.4439 13.2373 29.4999 13.4133L30.5559 16.9293C30.5799 17.0093 30.6159 17.0493 30.6639 17.0493C30.7199 17.0493 30.7599 17.0093 30.7839 16.9293L31.8039 13.6293C31.8679 13.4133 31.8839 13.2533 31.8519 13.1493C31.8279 13.0373 31.7159 12.9653 31.5159 12.9333L31.2639 12.8853C31.1599 12.8613 31.1079 12.8093 31.1079 12.7293C31.1079 12.6493 31.1639 12.6093 31.2759 12.6093H32.7999C32.9119 12.6093 32.9679 12.6533 32.9679 12.7413C32.9679 12.8213 32.9199 12.8773 32.8239 12.9093L32.7159 12.9453C32.5959 12.9853 32.4959 13.0573 32.4159 13.1613C32.3359 13.2653 32.2519 13.4453 32.1639 13.7013L30.3759 19.2813C30.1999 19.8413 30.0399 20.2573 29.8959 20.5293C29.7599 20.8013 29.6279 20.9773 29.4999 21.0573C29.3719 21.1453 29.2239 21.1893 29.0559 21.1893Z" fill="url(#paint1_linear_763_256)"/>
<defs>
<linearGradient id="paint0_linear_763_256" x1="5.03776" y1="0.180468" x2="35.115" y2="8" gradientUnits="userSpaceOnUse">
<stop stop-color="white" stop-opacity="0.9"/>
<stop offset="1" stop-color="white" stop-opacity="0.7"/>
</linearGradient>
<linearGradient id="paint1_linear_763_256" x1="1.20592" y1="10.4022" x2="32.7261" y2="19.9538" gradientUnits="userSpaceOnUse">
<stop stop-color="white" stop-opacity="0.9"/>
<stop offset="1" stop-color="white" stop-opacity="0.7"/>
</linearGradient>
</defs>
</svg>
